<?xml version="1.0" encoding="UTF-8" standalone="no"?>
<svg
   width="3221.8342"
   zoomAndPan="magnify"
   viewBox="0 0 2416.3757 903.14786"
   height="1204.1971"
   preserveAspectRatio="xMidYMid"
   version="1.2"
   id="svg90"
   sodipodi:docname="Empyria_20250814_180748_0000.svg"
   xmlns:inkscape="http://www.inkscape.org/namespaces/inkscape"
   xmlns:sodipodi="http://sodipodi.sourceforge.net/DTD/sodipodi-0.dtd"
   xmlns="http://www.w3.org/2000/svg"
   xmlns:svg="http://www.w3.org/2000/svg">
  <sodipodi:namedview
     id="namedview90"
     pagecolor="#ffffff"
     bordercolor="#000000"
     borderopacity="0.25"
     inkscape:showpageshadow="2"
     inkscape:pageopacity="0.0"
     inkscape:pagecheckerboard="0"
     inkscape:deskcolor="#d1d1d1">
    <inkscape:page
       x="0"
       y="0"
       width="2416.3757"
       height="903.14789"
       id="page2"
       margin="0"
       bleed="0" />
  </sodipodi:namedview>
  <defs
     id="defs20">
    <clipPath
       id="79f2ea290a">
      <path
         d="M 453.40234,510.32812 H 1673 V 1710.8711 H 453.40234 Z m 0,0"
         id="path1" />
    </clipPath>
    <clipPath
       id="05f06c4947">
      <path
         d="m 501.73437,702.03906 c -99.32812,183.29688 -29.21093,361.70704 58.3125,456.39454 l 511.73443,552.5625 500.9335,-550.5859 c 81.4024,-101.8633 112.7227,-209.9102 95.2735,-330.21879 -23.9375,-166.42969 -145.7969,-295.55469 -296.332,-313.99219 -92.3243,-10.64063 -181.5118,18.21875 -251.1211,83.3164 -18.7344,17.51563 -35.4805,37.10157 -50.0743,58.38282 -17.3164,-24.23438 -37.6211,-46.40235 -60.5859,-66.04688 -80.04688,-68.46875 -181.9375,-94.1914 -279.80859,-74.50781 -92.69922,20.15234 -175.90235,87.44922 -228.33204,184.69531 z m 0,0"
         id="path2" />
    </clipPath>
    <clipPath
       id="3f0155fb58">
      <path
         d="m 1564,759 h 562.5664 v 242 H 1564 Z m 0,0"
         id="path3" />
    </clipPath>
    <clipPath
       id="fd7d41a39a">
      <path
         d="m 1555,892 h 571.5664 v 247 H 1555 Z m 0,0"
         id="path4" />
    </clipPath>
    <clipPath
       id="03bffa6693">
      <path
         d="M 0.152344,885 H 573 v 251 H 0.152344 Z m 0,0"
         id="path5" />
    </clipPath>
    <clipPath
       id="57f4014713">
      <path
         d="M 0.152344,757 H 561 v 244 H 0.152344 Z m 0,0"
         id="path6" />
    </clipPath>
    <clipPath
       id="64d50aaa77">
      <path
         d="m 874,697 h 173 V 882 H 874 Z m 0,0"
         id="path7" />
    </clipPath>
    <clipPath
       id="e4238071d0">
      <path
         d="m 820.46875,639.16406 563.04685,18.59375 -22.6054,684.67579 -563.04692,-18.5898 z m 0,0"
         id="path8" />
    </clipPath>
    <clipPath
       id="4c7fa6a12d">
      <path
         d="m 820.46875,639.16406 563.04685,18.59375 -22.6054,684.67579 -563.04692,-18.5898 z m 0,0"
         id="path9" />
    </clipPath>
    <clipPath
       id="fac87cc2ef">
      <path
         d="m 809,1027 h 266 v 293 H 809 Z m 0,0"
         id="path10" />
    </clipPath>
    <clipPath
       id="73e7d1793e">
      <path
         d="m 820.46875,639.16406 563.04685,18.59375 -22.6054,684.67579 -563.04692,-18.5898 z m 0,0"
         id="path11" />
    </clipPath>
    <clipPath
       id="6bfe7c8916">
      <path
         d="m 820.46875,639.16406 563.04685,18.59375 -22.6054,684.67579 -563.04692,-18.5898 z m 0,0"
         id="path12" />
    </clipPath>
    <clipPath
       id="da70e55d03">
      <path
         d="m 1036,1020 h 327 v 301 h -327 z m 0,0"
         id="path13" />
    </clipPath>
    <clipPath
       id="655777a9e7">
      <path
         d="m 820.46875,639.16406 563.04685,18.59375 -22.6054,684.67579 -563.04692,-18.5898 z m 0,0"
         id="path14" />
    </clipPath>
    <clipPath
       id="20acfc691c">
      <path
         d="m 820.46875,639.16406 563.04685,18.59375 -22.6054,684.67579 -563.04692,-18.5898 z m 0,0"
         id="path15" />
    </clipPath>
    <clipPath
       id="0cd83c7c47">
      <path
         d="m 989,647 h 212 v 389 H 989 Z m 0,0"
         id="path16" />
    </clipPath>
    <clipPath
       id="e22ae03333">
      <path
         d="m 820.46875,639.16406 563.04685,18.59375 -22.6054,684.67579 -563.04692,-18.5898 z m 0,0"
         id="path17" />
    </clipPath>
    <clipPath
       id="0a9c03b7f2">
      <path
         d="m 820.46875,639.16406 563.04685,18.59375 -22.6054,684.67579 -563.04692,-18.5898 z m 0,0"
         id="path18" />
    </clipPath>
    <clipPath
       id="b01767c04d">
      <path
         d="m 1649,850 h 477.5664 v 194 H 1649 Z m 0,0"
         id="path19" />
    </clipPath>
    <clipPath
       id="ce33817883">
      <path
         d="M 0.152344,933 H 392 v 18 H 0.152344 Z m 0,0"
         id="path20" />
    </clipPath>
    <clipPath
       id="9e64422d91">
      <rect
         x="0"
         width="2127"
         y="0"
         height="2081"
         id="rect20" />
    </clipPath>
  </defs>
  <g
     id="9698ce0d8b"
     transform="matrix(0.43807649,0,0,0.43807649,-30.872411,-41.042265)">
    <g
       transform="translate(62,84)"
       id="g90">
      <g
         clip-path="url(#9e64422d91)"
         id="g89">
        <g
           clip-rule="nonzero"
           clip-path="url(#79f2ea290a)"
           id="g22">
          <g
             clip-rule="nonzero"
             clip-path="url(#05f06c4947)"
             id="g21">
            <path
               style="fill:none;stroke:#fefaef;stroke-width:30.7024;stroke-linecap:butt;stroke-linejoin:miter;stroke-miterlimit:4;stroke-opacity:1"
               d="m 35.347984,140.20334 c -72.642012,134.0512 -21.362945,264.52857 42.6459,333.77674 L 452.24251,878.08769 818.59217,475.4256 C 878.12445,400.92955 901.03005,321.91122 888.26885,233.92548 870.76255,112.20983 781.64267,17.776357 671.55123,4.29239 604.03141,-3.489458 538.80558,17.616378 487.89789,65.224492 474.19681,78.03426 461.94983,92.358117 451.27692,107.92181 438.61285,90.198397 423.76335,73.986213 406.96838,59.619504 348.4274,9.545995 273.91134,-9.265852 202.33491,5.129425 134.54084,19.867514 73.691585,69.083992 35.347984,140.20334 Z m 0,0"
               transform="matrix(1.367365,0,0,1.367365,453.40079,510.32995)"
               id="path21" />
          </g>
        </g>
        <path
           style="fill:none;stroke:#fefaef;stroke-width:12;stroke-linecap:butt;stroke-linejoin:miter;stroke-miterlimit:4;stroke-opacity:1"
           d="M 0.00110536,6.000612 276.33804,5.998901"
           transform="matrix(0.871155,-1.053933,1.053933,0.871155,1446.3779,534.61355)"
           id="path22" />
        <path
           style="fill:none;stroke:#fefaef;stroke-width:12;stroke-linecap:butt;stroke-linejoin:miter;stroke-miterlimit:4;stroke-opacity:1"
           d="M -8.33503e-6,5.998311 179.63239,5.999506"
           transform="matrix(0.808849,-1.102474,1.102474,0.808849,1394.3402,528.46076)"
           id="path23" />
        <path
           style="fill:none;stroke:#fefaef;stroke-width:12;stroke-linecap:butt;stroke-linejoin:miter;stroke-miterlimit:4;stroke-opacity:1"
           d="M 6.16285e-4,6.001307 232.48476,6.000144"
           transform="matrix(1.035475,-0.893016,0.893016,1.035475,1479.0854,547.98947)"
           id="path24" />
        <path
           style="fill:none;stroke:#fefaef;stroke-width:12;stroke-linecap:butt;stroke-linejoin:miter;stroke-miterlimit:4;stroke-opacity:1"
           d="M 4.94301e-4,5.998871 63.044728,6.00019"
           transform="matrix(1.196629,-0.661639,0.661639,1.196629,1561.5889,615.69691)"
           id="path25" />
        <path
           style="fill:none;stroke:#fefaef;stroke-width:12;stroke-linecap:butt;stroke-linejoin:miter;stroke-miterlimit:4;stroke-opacity:1"
           d="M -0.00104215,5.999309 44.255232,6.000536"
           transform="matrix(1.202936,-0.6501,0.6501,1.202936,1603.6441,673.5091)"
           id="path26" />
        <path
           style="fill:none;stroke:#fefaef;stroke-width:12;stroke-linecap:butt;stroke-linejoin:miter;stroke-miterlimit:4;stroke-opacity:1"
           d="M -7.54457e-4,5.998888 123.21564,5.999578"
           transform="matrix(1.289554,-0.454682,0.454682,1.289554,1637.4882,765.20517)"
           id="path27" />
        <path
           style="fill:none;stroke:#fefaef;stroke-width:12;stroke-linecap:butt;stroke-linejoin:miter;stroke-miterlimit:4;stroke-opacity:1"
           d="M -7.3812e-4,5.999242 193.84851,6.001215"
           transform="matrix(1.332601,-0.306369,0.306369,1.332601,1650.4989,834.10284)"
           id="path28" />
        <g
           clip-rule="nonzero"
           clip-path="url(#3f0155fb58)"
           id="g29">
          <path
             style="fill:none;stroke:#fefaef;stroke-width:12;stroke-linecap:butt;stroke-linejoin:miter;stroke-miterlimit:4;stroke-opacity:1"
             d="M -2.16558e-4,6.000808 281.58225,5.999198"
             transform="matrix(1.35293,-0.198161,0.198161,1.35293,1655.9557,899.67035)"
             id="path29" />
        </g>
        <g
           clip-rule="nonzero"
           clip-path="url(#fd7d41a39a)"
           id="g30">
          <path
             style="fill:none;stroke:#fefaef;stroke-width:12;stroke-linecap:butt;stroke-linejoin:miter;stroke-miterlimit:4;stroke-opacity:1"
             d="M -0.00119036,5.998888 288.1201,5.998988"
             transform="matrix(1.351604,0.207011,-0.207011,1.351604,1649.302,977.52885)"
             id="path30" />
        </g>
        <path
           style="fill:none;stroke:#fefaef;stroke-width:12;stroke-linecap:butt;stroke-linejoin:miter;stroke-miterlimit:4;stroke-opacity:1"
           d="M 4.09243e-4,5.999501 221.49012,5.999465"
           transform="matrix(1.33182,0.309746,-0.309746,1.33182,1636.682,1041.287)"
           id="path31" />
        <path
           style="fill:none;stroke:#fefaef;stroke-width:12;stroke-linecap:butt;stroke-linejoin:miter;stroke-miterlimit:4;stroke-opacity:1"
           d="M 1.22661e-4,6.001023 149.00902,6.000334"
           transform="matrix(1.290661,0.451531,-0.451531,1.290661,1608.147,1102.6922)"
           id="path32" />
        <path
           style="fill:none;stroke:#fefaef;stroke-width:12;stroke-linecap:butt;stroke-linejoin:miter;stroke-miterlimit:4;stroke-opacity:1"
           d="M 5.79961e-4,6.001141 112.70758,6.000129"
           transform="matrix(1.18864,0.675885,-0.675885,1.18864,1542.7195,1166.2531)"
           id="path33" />
        <path
           style="fill:none;stroke:#fefaef;stroke-width:12;stroke-linecap:butt;stroke-linejoin:miter;stroke-miterlimit:4;stroke-opacity:1"
           d="M -0.00112583,6.000805 127.68795,5.999781"
           transform="matrix(1.170685,0.706529,-0.706529,1.170685,1502.8153,1220.5187)"
           id="path34" />
        <path
           style="fill:none;stroke:#fefaef;stroke-width:12;stroke-linecap:butt;stroke-linejoin:miter;stroke-miterlimit:4;stroke-opacity:1"
           d="M -4.89872e-4,5.999488 193.38735,5.99993"
           transform="matrix(1.115312,0.791053,-0.791053,1.115312,1461.6879,1270.7036)"
           id="path35" />
        <path
           style="fill:none;stroke:#fefaef;stroke-width:12;stroke-linecap:butt;stroke-linejoin:miter;stroke-miterlimit:4;stroke-opacity:1"
           d="M 1.80447e-4,6.000614 190.27702,5.999837"
           transform="matrix(0.847445,1.07309,-1.07309,0.847445,1391.439,1348.8013)"
           id="path36" />
        <path
           style="fill:none;stroke:#fefaef;stroke-width:12;stroke-linecap:butt;stroke-linejoin:miter;stroke-miterlimit:4;stroke-opacity:1"
           d="M -0.00100719,6.000349 106.66579,6.00111"
           transform="matrix(0.845295,1.074785,-1.074785,0.845295,1346.3679,1396.0071)"
           id="path37" />
        <path
           style="fill:none;stroke:#fefaef;stroke-width:12;stroke-linecap:butt;stroke-linejoin:miter;stroke-miterlimit:4;stroke-opacity:1"
           d="M 0.00176354,5.999752 85.19425,6.000407"
           transform="matrix(0.746434,1.145654,-1.145654,0.746434,1308.1614,1434.5938)"
           id="path38" />
        <path
           style="fill:none;stroke:#fefaef;stroke-width:12;stroke-linecap:butt;stroke-linejoin:miter;stroke-miterlimit:4;stroke-opacity:1"
           d="M 4.308e-4,5.999055 124.79438,5.998809"
           transform="matrix(0.564647,1.245335,-1.245335,0.564647,1238.2909,1516.8152)"
           id="path39" />
        <path
           style="fill:none;stroke:#fefaef;stroke-width:12;stroke-linecap:butt;stroke-linejoin:miter;stroke-miterlimit:4;stroke-opacity:1"
           d="M 0.00138399,5.998916 175.00015,6.001269"
           transform="matrix(0.33569,1.325518,-1.325518,0.33569,1188.3809,1570.9414)"
           id="path40" />
        <path
           style="fill:none;stroke:#fefaef;stroke-width:12;stroke-linecap:butt;stroke-linejoin:miter;stroke-miterlimit:4;stroke-opacity:1"
           d="M -4.38529e-4,6.000991 220.57373,6.001188"
           transform="matrix(0.193371,1.353623,-1.353623,0.193371,1132.3068,1635.18)"
           id="path41" />
        <path
           style="fill:none;stroke:#fefaef;stroke-width:12;stroke-linecap:butt;stroke-linejoin:miter;stroke-miterlimit:4;stroke-opacity:1"
           d="M 0.0010581,5.999313 220.57393,5.99924"
           transform="matrix(-0.225957,1.348566,-1.348566,-0.225957,1021.6806,1637.4557)"
           id="path42" />
        <path
           style="fill:none;stroke:#fefaef;stroke-width:12;stroke-linecap:butt;stroke-linejoin:miter;stroke-miterlimit:4;stroke-opacity:1"
           d="M 4.59214e-4,6.001189 H 274.3906"
           transform="matrix(0,1.367365,-1.367365,0,1079.4246,1696.1166)"
           id="path43" />
        <path
           style="fill:none;stroke:#fefaef;stroke-width:12;stroke-linecap:butt;stroke-linejoin:miter;stroke-miterlimit:4;stroke-opacity:1"
           d="M -2.12348e-5,6.000779 174.77104,6.000114"
           transform="matrix(-0.358644,1.319493,-1.319493,-0.358644,958.10938,1576.4569)"
           id="path44" />
        <path
           style="fill:none;stroke:#fefaef;stroke-width:12;stroke-linecap:butt;stroke-linejoin:miter;stroke-miterlimit:4;stroke-opacity:1"
           d="M -6.86198e-4,5.999971 148.77877,5.998947"
           transform="matrix(-0.421302,1.300842,-1.300842,-0.421302,903.69535,1502.5873)"
           id="path45" />
        <path
           style="fill:none;stroke:#fefaef;stroke-width:12;stroke-linecap:butt;stroke-linejoin:miter;stroke-miterlimit:4;stroke-opacity:1"
           d="M 5.21865e-4,6.001036 85.193251,6.000566"
           transform="matrix(-0.624005,1.216677,-1.216677,-0.624005,833.21571,1446.5605)"
           id="path46" />
        <path
           style="fill:none;stroke:#fefaef;stroke-width:12;stroke-linecap:butt;stroke-linejoin:miter;stroke-miterlimit:4;stroke-opacity:1"
           d="M 3.2042e-4,5.998609 106.66451,5.998724"
           transform="matrix(-0.771257,1.129092,-1.129092,-0.771257,788.48807,1392.5519)"
           id="path47" />
        <path
           style="fill:none;stroke:#fefaef;stroke-width:12;stroke-linecap:butt;stroke-linejoin:miter;stroke-miterlimit:4;stroke-opacity:1"
           d="M -3.8034e-4,5.999921 190.27748,5.999848"
           transform="matrix(0.796184,-1.111655,1.111655,0.796184,576.01015,1548.5038)"
           id="path48" />
        <path
           style="fill:none;stroke:#fefaef;stroke-width:12;stroke-linecap:butt;stroke-linejoin:miter;stroke-miterlimit:4;stroke-opacity:1"
           d="M 7.74763e-4,6.00117 193.38954,6.00084"
           transform="matrix(1.0598,-0.864008,0.864008,1.0598,459.9274,1418.9453)"
           id="path49" />
        <path
           style="fill:none;stroke:#fefaef;stroke-width:12;stroke-linecap:butt;stroke-linejoin:miter;stroke-miterlimit:4;stroke-opacity:1"
           d="M -7.99001e-4,5.998667 127.68861,6.000535"
           transform="matrix(1.156176,-0.730029,0.730029,1.156176,481.82875,1310.2241)"
           id="path50" />
        <path
           style="fill:none;stroke:#fefaef;stroke-width:12;stroke-linecap:butt;stroke-linejoin:miter;stroke-miterlimit:4;stroke-opacity:1"
           d="M -5.01823e-4,5.999135 112.70771,5.999224"
           transform="matrix(1.202496,-0.650914,0.650914,1.202496,452.03318,1243.7896)"
           id="path51" />
        <path
           style="fill:none;stroke:#fefaef;stroke-width:12;stroke-linecap:butt;stroke-linejoin:miter;stroke-miterlimit:4;stroke-opacity:1"
           d="M 9.42517e-4,5.99936 149.00798,5.999166"
           transform="matrix(1.278359,-0.485268,0.485268,1.278359,336.10312,1163.7413)"
           id="path52" />
        <path
           style="fill:none;stroke:#fefaef;stroke-width:12;stroke-linecap:butt;stroke-linejoin:miter;stroke-miterlimit:4;stroke-opacity:1"
           d="M 0.00105556,6.000624 221.48888,6.000658"
           transform="matrix(1.332695,-0.305957,0.305957,1.332695,206.03766,1107.5775)"
           id="path53" />
        <g
           clip-rule="nonzero"
           clip-path="url(#03bffa6693)"
           id="g54">
          <path
             style="fill:none;stroke:#fefaef;stroke-width:12;stroke-linecap:butt;stroke-linejoin:miter;stroke-miterlimit:4;stroke-opacity:1"
             d="M -8.03125e-4,6.000996 288.12007,5.999688"
             transform="matrix(1.348976,-0.223492,0.223492,1.348976,89.390376,1034.4554)"
             id="path54" />
        </g>
        <g
           clip-rule="nonzero"
           clip-path="url(#57f4014713)"
           id="g55">
          <path
             style="fill:none;stroke:#fefaef;stroke-width:12;stroke-linecap:butt;stroke-linejoin:miter;stroke-miterlimit:4;stroke-opacity:1"
             d="M 1.761e-4,5.998571 281.58195,6.000678"
             transform="matrix(1.352212,0.203,-0.203,1.352212,87.697943,842.09956)"
             id="path55" />
        </g>
        <path
           style="fill:none;stroke:#fefaef;stroke-width:12;stroke-linecap:butt;stroke-linejoin:miter;stroke-miterlimit:4;stroke-opacity:1"
           d="M -0.0010719,6.000555 193.84839,6.000464"
           transform="matrix(1.331816,0.309761,-0.309761,1.331816,209.0672,772.94619)"
           id="path56" />
        <path
           style="fill:none;stroke:#fefaef;stroke-width:12;stroke-linecap:butt;stroke-linejoin:miter;stroke-miterlimit:4;stroke-opacity:1"
           d="M 0.00108741,5.999494 123.21666,6.000757"
           transform="matrix(1.286305,0.463795,-0.463795,1.286305,327.71473,708.35654)"
           id="path57" />
        <path
           style="fill:none;stroke:#fefaef;stroke-width:12;stroke-linecap:butt;stroke-linejoin:miter;stroke-miterlimit:4;stroke-opacity:1"
           d="M 8.06161e-4,5.998906 44.257124,5.999007"
           transform="matrix(1.195364,0.663921,-0.663921,1.195364,468.97793,641.10593)"
           id="path58" />
        <path
           style="fill:none;stroke:#fefaef;stroke-width:12;stroke-linecap:butt;stroke-linejoin:miter;stroke-miterlimit:4;stroke-opacity:1"
           d="M -3.83666e-4,6.001214 63.043513,5.999206"
           transform="matrix(-1.112109,-0.79555,0.79555,-1.112109,553.52218,631.07995)"
           id="path59" />
        <path
           style="fill:none;stroke:#fefaef;stroke-width:12;stroke-linecap:butt;stroke-linejoin:miter;stroke-miterlimit:4;stroke-opacity:1"
           d="M -7.77824e-4,6.000253 136.62613,5.99938"
           transform="matrix(-1.10854,-0.800516,0.800516,-1.10854,601.50443,586.40871)"
           id="path60" />
        <path
           style="fill:none;stroke:#fefaef;stroke-width:12;stroke-linecap:butt;stroke-linejoin:miter;stroke-miterlimit:4;stroke-opacity:1"
           d="M -1.84504e-4,6.001287 136.62651,6.000968"
           transform="matrix(-1.086848,0.829728,-0.829728,-1.086848,1671.7214,471.21405)"
           id="path61" />
        <path
           style="fill:none;stroke:#fefaef;stroke-width:12;stroke-linecap:butt;stroke-linejoin:miter;stroke-miterlimit:4;stroke-opacity:1"
           d="M -0.00121229,5.999427 232.48532,5.99927"
           transform="matrix(-1.02857,-0.90096,0.90096,-1.02857,634.78882,565.32599)"
           id="path62" />
        <path
           style="fill:none;stroke:#fefaef;stroke-width:12;stroke-linecap:butt;stroke-linejoin:miter;stroke-miterlimit:4;stroke-opacity:1"
           d="M -8.38115e-5,5.999448 276.33823,6.001201"
           transform="matrix(-0.906165,-1.023988,1.023988,-0.906165,677.36047,546.34265)"
           id="path63" />
        <path
           style="fill:none;stroke:#fefaef;stroke-width:12;stroke-linecap:butt;stroke-linejoin:miter;stroke-miterlimit:4;stroke-opacity:1"
           d="M -0.00143569,5.999765 179.63268,6.000198"
           transform="matrix(-0.786193,-1.118744,1.118744,-0.786193,714.18902,535.00443)"
           id="path64" />
        <path
           style="fill:none;stroke:#fefaef;stroke-width:12;stroke-linecap:butt;stroke-linejoin:miter;stroke-miterlimit:4;stroke-opacity:1"
           d="M -8.89e-5,6.00143 122.71329,5.99885"
           transform="matrix(-0.696848,-1.176473,1.176473,-0.696848,774.65426,521.33823)"
           id="path65" />
        <path
           style="fill:none;stroke:#fefaef;stroke-width:12;stroke-linecap:butt;stroke-linejoin:miter;stroke-miterlimit:4;stroke-opacity:1"
           d="M -6.77655e-4,6.000151 122.71309,5.999113"
           transform="matrix(0.601575,-1.227922,1.227922,0.601575,1339.9178,526.09275)"
           id="path66" />
        <path
           style="fill:none;stroke:#fefaef;stroke-width:12;stroke-linecap:butt;stroke-linejoin:miter;stroke-miterlimit:4;stroke-opacity:1"
           d="M -9.6361e-4,5.99903 121.51538,6.000626"
           transform="matrix(0.544278,-1.254372,1.254372,0.544278,1266.2568,528.18678)"
           id="path67" />
        <path
           style="fill:none;stroke:#fefaef;stroke-width:12;stroke-linecap:butt;stroke-linejoin:miter;stroke-miterlimit:4;stroke-opacity:1"
           d="M -2.4051e-4,6.000376 201.20831,5.999089"
           transform="matrix(0.244081,-1.345404,1.345404,0.244081,1189.5092,563.00776)"
           id="path68" />
        <path
           style="fill:none;stroke:#fefaef;stroke-width:12;stroke-linecap:butt;stroke-linejoin:miter;stroke-miterlimit:4;stroke-opacity:1"
           d="M 4.44768e-4,5.998648 201.20786,5.998894"
           transform="matrix(-0.309733,-1.331823,1.331823,-0.309733,930.8235,554.3156)"
           id="path69" />
        <path
           style="fill:none;stroke:#fefaef;stroke-width:12;stroke-linecap:butt;stroke-linejoin:miter;stroke-miterlimit:4;stroke-opacity:1"
           d="M 0.00118412,5.999578 325.54868,5.998825"
           transform="matrix(0.13264,-1.360916,1.360916,0.13264,1129.0888,599.74879)"
           id="path70" />
        <path
           style="fill:none;stroke:#fefaef;stroke-width:12;stroke-linecap:butt;stroke-linejoin:miter;stroke-miterlimit:4;stroke-opacity:1"
           d="M 7.97683e-4,5.999178 H 478.35022"
           transform="matrix(0,-1.367365,1.367365,0,1063.0118,663.76672)"
           id="path71" />
        <g
           clip-rule="nonzero"
           clip-path="url(#64d50aaa77)"
           id="g74">
          <g
             clip-rule="nonzero"
             clip-path="url(#e4238071d0)"
             id="g73">
            <g
               clip-rule="nonzero"
               clip-path="url(#4c7fa6a12d)"
               id="g72">
              <path
                 style="fill:#fefaef;fill-opacity:1;fill-rule:nonzero;stroke:none"
                 d="m 1006.3437,813.86719 c -34.92183,47.03515 -83.3437,59.72656 -124.73433,67.9414 -4.07812,0.8086 -7.58984,-2.90625 -6.59375,-6.9414 1.91797,-7.78125 3.45313,-15.98828 5.03125,-24.41407 4.94141,-26.36328 10.05469,-53.6289 27.42579,-77.02734 35.65625,-48.00781 86.44921,-77.53125 127.64064,-76.17187 h 0.012 c 1.6016,0.0391 2.5391,1.83593 1.6484,3.16406 -43.94918,65.42578 -116.46871,123.70703 -117.47262,124.53906 -4.00391,3.3125 -4.57031,9.25 -1.25391,13.26172 1.79297,2.17187 4.34766,3.32812 6.95313,3.41406 2.21484,0.0742 4.46484,-0.6289 6.30859,-2.15234 4.03125,-3.33594 67.77344,-56.48438 112.59371,-120.26172 0.7618,-1.08594 2.4727,-0.42578 2.3047,0.88672 -3.9843,30.88281 -17.9961,64.3125 -39.8633,93.76172 z m 0,0"
                 id="path72" />
            </g>
          </g>
        </g>
        <g
           clip-rule="nonzero"
           clip-path="url(#fac87cc2ef)"
           id="g77">
          <g
             clip-rule="nonzero"
             clip-path="url(#73e7d1793e)"
             id="g76">
            <g
               clip-rule="nonzero"
               clip-path="url(#6bfe7c8916)"
               id="g75">
              <path
                 style="fill:#fefaef;fill-opacity:1;fill-rule:nonzero;stroke:none"
                 d="m 1041.9453,1244.2852 c -29.6055,-49.5664 -31.9375,-109.9219 -5.8633,-153.6407 9.6993,-16.2617 22.7227,-29.3281 38.5235,-38.9648 -21.7188,-9.4141 -47.9883,-11.5859 -77.18363,-5.9688 h -0.004 c -6.89453,1.3282 -14.15625,0.3633 -20.45703,-2.7148 -19.84375,-9.6797 -39.25782,-14.8125 -57.52735,-15.418 -22.17968,-0.7304 -42.67578,5.2149 -60.22656,17.8047 -35.79687,25.6992 -54.71094,75.0156 -48.19141,125.6445 9.38282,82.8516 60.3711,136.2188 139.91797,146.5625 47.69922,6.4649 89.46481,-4.7187 121.87111,-31.3671 -11.3516,-12.0313 -21.6875,-26.0313 -30.8594,-41.9375 z m -111.64452,29.707 c -10.42969,-2.3047 -20.55859,-6.3672 -29.99609,-11.6914 -6.82032,-3.8203 -13.19141,-8.461 -19.13672,-13.6055 -3.01172,-2.5039 -5.69922,-5.3437 -8.48828,-8.0898 -0.0391,-0.039 -0.082,-0.082 -0.11719,-0.125 -2.57031,-2.9414 -5.24219,-5.8125 -7.57422,-8.9571 -9.69531,-12.4296 -16.84375,-26.8515 -20.91016,-41.9101 -2.80078,-10.4141 -4.22265,-21.1914 -3.88671,-31.8281 0.0937,-2.9805 4.28125,-3.5391 5.12109,-0.6797 2.90625,9.8828 6.27344,19.3476 10.375,28.4218 5.82812,13.086 13.04297,25.2891 21.71484,36.3868 4.24219,5.6172 8.92969,10.8984 13.92578,15.8906 4.96875,5.0234 10.25391,9.7851 15.85547,14.2422 7.80078,6.2304 16.15235,11.8633 25.03516,17.1484 2.55078,1.5195 0.98437,5.4414 -1.91797,4.7969 z m 0,0"
                 id="path74" />
            </g>
          </g>
        </g>
        <g
           clip-rule="nonzero"
           clip-path="url(#da70e55d03)"
           id="g80">
          <g
             clip-rule="nonzero"
             clip-path="url(#655777a9e7)"
             id="g79">
            <g
               clip-rule="nonzero"
               clip-path="url(#20acfc691c)"
               id="g78">
              <path
                 style="fill:#fefaef;fill-opacity:1;fill-rule:nonzero;stroke:none"
                 d="m 1362.0078,1147.9688 c -0.9531,-51.1797 -26.8672,-97.2032 -66.0234,-117.3907 -35.0039,-18.039 -76.5039,-12.7734 -116.8438,14.8438 -5.7851,3.9687 -12.8867,5.9101 -19.8515,5.6797 -0.6328,-0.024 -1.2696,-0.051 -1.8985,-0.07 -47.9218,-1.5821 -85.207,15.8671 -105.1211,49.2656 -22.5742,37.8476 -20.2461,90.6211 5.9258,134.4453 41.6445,72.2187 109.6953,100.7969 186.7539,78.5351 77.2305,-21.871 119.8789,-82.121 117.0586,-165.3085 z m -186.8476,134.1093 c -10.4297,-2.3047 -20.5586,-6.3672 -29.9961,-11.6953 -6.8203,-3.8164 -13.1914,-8.4609 -19.1368,-13.6055 -3.0117,-2.5 -5.6992,-5.3398 -8.4882,-8.0898 -0.039,-0.039 -0.078,-0.082 -0.1172,-0.125 -2.5703,-2.9414 -5.2422,-5.8086 -7.5742,-8.9531 -9.6954,-12.4336 -16.8399,-26.8516 -20.9063,-41.9102 -2.8047,-10.414 -4.2266,-21.1953 -3.8906,-31.8281 0.094,-2.9805 4.2812,-3.543 5.125,-0.6797 2.9062,9.8828 6.2773,19.3477 10.375,28.4219 5.8281,13.0859 13.043,25.289 21.7148,36.3867 4.2422,5.6172 8.9336,10.8984 13.9258,15.8906 4.9727,5.0235 10.2539,9.7852 15.8594,14.2422 7.8008,6.2266 16.1484,11.8594 25.0312,17.1485 2.543,1.5195 0.9805,5.4414 -1.9218,4.7968 z m 0,0"
                 id="path77" />
            </g>
          </g>
        </g>
        <g
           clip-rule="nonzero"
           clip-path="url(#0cd83c7c47)"
           id="g83">
          <g
             clip-rule="nonzero"
             clip-path="url(#e22ae03333)"
             id="g82">
            <g
               clip-rule="nonzero"
               clip-path="url(#0a9c03b7f2)"
               id="g81">
              <path
                 style="fill:#fefaef;fill-opacity:1;fill-rule:nonzero;stroke:none"
                 d="m 1199.6172,903.46094 c -4.0274,-73.90625 -30.2969,-177.8125 -132.5664,-253.125 -1.1914,-0.87891 -2.4531,-1.42188 -3.7149,-1.6836 -1.1211,-0.57422 -2.375,-0.9375 -3.7187,-1.01953 -0.094,-0.008 -0.1836,-0.008 -0.2734,-0.0117 -5.0782,-0.16797 -9.3946,3.74219 -9.7071,8.84375 -0.082,1.34766 -0.1992,2.71094 -0.3437,4.07032 0.1562,4.44921 2.8281,9.58984 4.2968,13.71484 3.6602,10.26953 7.9805,19.9375 10.3321,30.62891 1.5351,6.97656 2.9531,13.97265 4.2656,20.99218 3.0938,16.53516 5.5742,33.1875 7.3516,49.92188 1.9961,18.8125 3.1093,37.73047 3.0312,56.65234 -0.078,19.66016 -1.4219,39.34766 -4.582,58.76563 -3.1289,19.21875 -8.0586,38.21484 -15.4883,56.23828 -7.3281,17.75 -17.1406,34.51953 -29.6992,49.08594 -11.1055,12.88282 -24.2735,23.90622 -38.86721,32.63672 l 32.95701,-0.4024 c 52.5157,-44.21479 78.1328,-118.40229 74.3985,-216.73042 -1.9922,-52.375 -11.6836,-99.66797 -18.8594,-128.375 62.8398,55.29297 97.2305,129.23047 102.332,220.19922 3.5625,63.50391 -9.0586,115.9023 -13.4883,131.9844 l 21.9102,-9.7344 c 5.668,-24.7696 13.3203,-69.59766 10.4336,-122.65234 z m 0,0"
                 id="path80" />
            </g>
          </g>
        </g>
        <path
           style="fill:none;stroke:#fefaef;stroke-width:12;stroke-linecap:butt;stroke-linejoin:miter;stroke-miterlimit:4;stroke-opacity:1"
           d="M 5.51957e-5,5.999345 274.39159,5.999485"
           transform="matrix(-0.942981,0.990189,-0.990189,-0.942981,708.03038,1302.6025)"
           id="path83" />
        <path
           style="fill:none;stroke:#fefaef;stroke-width:12;stroke-linecap:butt;stroke-linejoin:miter;stroke-miterlimit:4;stroke-opacity:1"
           d="M -0.00143241,6.000224 274.39116,6.0001"
           transform="matrix(0.671596,1.191069,-1.191069,0.671596,1275.8937,1468.8939)"
           id="path84" />
        <path
           style="fill:none;stroke:#fefaef;stroke-width:12;stroke-linecap:butt;stroke-linejoin:miter;stroke-miterlimit:4;stroke-opacity:1"
           d="M -6.66137e-4,6.000871 274.39222,6.000554"
           transform="matrix(0.99451,0.938422,-0.938422,0.99451,1421.0578,1308.0991)"
           id="path85" />
        <g
           clip-rule="nonzero"
           clip-path="url(#b01767c04d)"
           id="g86">
          <path
             style="fill:none;stroke:#fefaef;stroke-width:12;stroke-linecap:butt;stroke-linejoin:miter;stroke-miterlimit:4;stroke-opacity:1"
             d="M -2.11156e-4,5.999309 274.3919,6.000622"
             transform="matrix(1.367113,0.0262304,-0.0262304,1.367113,1742.4037,934.91546)"
             id="path86" />
        </g>
        <g
           clip-rule="nonzero"
           clip-path="url(#ce33817883)"
           id="g87">
          <path
             style="fill:none;stroke:#fefaef;stroke-width:12;stroke-linecap:butt;stroke-linejoin:miter;stroke-miterlimit:4;stroke-opacity:1"
             d="M 2.40247e-5,6.001411 H 274.39017"
             transform="matrix(1.367365,0,0,1.367365,8.472623,933.90716)"
             id="path87" />
        </g>
        <path
           style="fill:none;stroke:#fefaef;stroke-width:12;stroke-linecap:butt;stroke-linejoin:miter;stroke-miterlimit:4;stroke-opacity:1"
           d="M 0.00125162,6.000336 121.51663,5.999941"
           transform="matrix(-0.413427,-1.303366,1.303366,-0.413427,850.51972,531.45499)"
           id="path88" />
        <path
           style="fill:none;stroke:#fefaef;stroke-width:12;stroke-linecap:butt;stroke-linejoin:miter;stroke-miterlimit:4;stroke-opacity:1"
           d="M -1.72243e-4,5.998609 325.54738,5.999484"
           transform="matrix(-0.129401,-1.361228,1.361228,-0.129401,991.67044,597.87755)"
           id="path89" />
      </g>
    </g>
  </g>
  <g
     id="2fd6ca9318"
     inkscape:export-filename="2fd6ca9318.svg"
     inkscape:export-xdpi="96"
     inkscape:export-ydpi="96"
     transform="translate(509.43,-663.00996)">
    <g
       style="fill:#fefaef;fill-opacity:1"
       id="g2">
      <g
         transform="translate(411.27406,1331.6362)"
         id="g1">
        <path
           style="stroke:none"
           d="m 288.78125,-328.92187 c 1.48828,9.34375 0.73828,18.19921 -2.25,26.5625 -2.98047,8.36718 -7.49609,15.89062 -13.54688,22.57812 -6.04296,6.67969 -13.27343,12.23047 -21.6875,16.65625 -8.40625,4.42969 -17.28125,7.38672 -26.625,8.875 -4.21875,0.67969 -8.26171,1.01563 -12.125,1.01563 -3.86718,0 -6.75,-0.14844 -8.65625,-0.45313 l -0.34375,-5.04687 c 2.25,0.5625 5.50782,0.66406 9.78125,0.29687 4.26954,-0.375 8.20704,-0.84766 11.8125,-1.42187 7.84375,-1.25 14.70313,-4.27344 20.57813,-9.07813 5.88281,-4.8125 10.70703,-10.45312 14.46875,-16.92187 3.75781,-6.47657 6.36719,-13.39063 7.82812,-20.73438 1.45704,-7.34375 1.70704,-14.03125 0.75,-20.0625 -2.21875,-13.86328 -7.90234,-23.30469 -17.04687,-28.32812 -9.14844,-5.03125 -20.95313,-6.39454 -35.42188,-4.09375 -13.57421,2.16796 -25.21093,7.73437 -34.90625,16.70312 -9.69921,8.96094 -16.53906,22.26172 -20.51562,39.90625 -1.61719,7.35547 -2.51172,14.37109 -2.6875,21.04688 -0.16797,6.67968 0.56641,15.14062 2.20312,25.39062 1.05079,6.63672 0.60938,14.04688 -1.32812,22.23438 -1.92969,8.1875 -6.45313,15.16796 -13.57813,20.9375 -3.83593,3.09375 -8.13671,6.17968 -12.90625,9.25 -4.76171,3.07421 -10.21484,6.65234 -16.35937,10.73437 -8.92969,6.05469 -17.214844,12.24219 -24.859375,18.5625 -7.648437,6.32422 -14.007813,12.98047 -19.078125,19.96875 -7.34375,10.13672 -12.109375,20.94531 -14.296875,32.42187 -2.1875,11.48047 -2.4375,22.496099 -0.75,33.04688 2.164063,13.5625 6.515625,24.851562 13.046875,33.859375 6.539062,9 14.234375,16.042969 23.078125,21.125 8.843755,5.074219 18.175785,8.371094 28.000005,9.890625 9.83203,1.523438 19.11718,1.589844 27.85937,0.203125 12.35156,-1.976563 24.34375,-5.75 35.96875,-11.3125 11.63281,-5.5625 21.80078,-12.585937 30.5,-21.078125 8.69531,-8.5 15.26562,-18.203125 19.70312,-29.109375 4.4375,-10.90625 5.64454,-22.691405 3.625,-35.359375 -2.15625,-13.5625 -6.49218,-23.30078 -13,-29.21875 -6.51171,-5.92578 -15.79296,-7.92969 -27.84375,-6.01562 -10.85546,1.74218 -21.29687,7.04296 -31.32812,15.90625 -10.02344,8.86718 -18.41797,20.17187 -25.1875,33.92187 l -3.53125,-1.73438 c 7.28125,-14.46875 16.55078,-26.61328 27.8125,-36.43749 11.25781,-9.83204 25.02344,-16.04688 41.29687,-18.64063 16.28125,-2.59375 29.14844,-0.39844 38.60938,6.57813 9.45703,6.98046 15.14844,16.50781 17.07812,28.57812 1.78125,11.14844 -0.60937,22.80859 -7.17187,34.984375 -6.55469,12.179687 -15.54688,23.585937 -26.98438,34.21875 -11.4375,10.636719 -24.57421,19.84375 -39.40625,27.625 -14.83593,7.773437 -29.49218,12.808594 -43.96875,15.109375 -16.27343,2.605469 -31.10546,3.121094 -44.49999,1.546875 C 87.503906,-15.804688 75.847656,-19.125 65.921875,-24.1875 55.992188,-29.257812 47.957031,-36.015625 41.8125,-44.453125 35.675781,-52.898438 31.742188,-62.550781 30.015625,-73.40625 c -1.929687,-12.050781 -1.804687,-22.890625 0.375,-32.51563 2.175781,-9.625 5.710937,-18.45703 10.609375,-26.49999 4.90625,-8.05079 10.929688,-15.35157 18.078125,-21.90625 7.144531,-6.55079 14.707031,-12.92969 22.6875,-19.14063 10.738281,-8.21875 20.753905,-15.14844 30.046875,-20.79687 9.30078,-5.65625 15.72656,-10.92969 19.28125,-15.82813 1.51953,-2.09375 2.50391,-4.64062 2.95312,-7.64062 0.44532,-3.00782 0.65625,-6.05469 0.625,-9.14063 -0.0312,-3.09375 -0.25781,-5.92187 -0.67187,-8.48437 -0.40625,-2.5625 -0.73047,-4.59766 -0.96875,-6.10938 -1.19922,-7.53125 -1.96484,-14.28516 -2.29688,-20.26562 -0.33593,-5.97657 -0.28125,-11.47266 0.15625,-16.48438 0.4375,-5.01953 1.22266,-9.78516 2.35938,-14.29687 1.13281,-4.50782 2.57031,-9.06641 4.3125,-13.67188 5.92578,-15.15625 15.86328,-27.94141 29.8125,-38.35937 13.94531,-10.41407 31.32031,-17.28125 52.125,-20.59375 18.375,-2.9375 33.94531,-1.17188 46.71875,5.29687 12.78125,6.46094 20.30078,16.76563 22.5625,30.92188 z m 0,0"
           id="path1-0" />
      </g>
    </g>
    <g
       style="fill:#fefaef;fill-opacity:1"
       id="g4">
      <g
         transform="translate(712.87414,1283.5227)"
         id="g3">
        <path
           style="stroke:none"
           d="m 157.65625,-165.64062 c 0.86328,5.41796 -0.71484,13.47656 -4.73438,24.17187 -4.01171,10.6875 -11.45312,26.48047 -22.32812,47.375 l 1.03125,0.75 c 7.23828,-14.75 14.91406,-28.17578 23.03125,-40.28125 8.11328,-12.11328 16.64453,-23.0625 25.59375,-32.84375 8.89453,-10.07031 17.61328,-17.875 26.15625,-23.40625 8.55078,-5.53906 16.74219,-8.9375 24.57812,-10.1875 8.75,-1.38281 15.64454,-0.31641 20.6875,3.20313 5.03907,3.52343 8.16407,9.04687 9.375,16.57812 1.05079,6.63672 -0.62109,15.55859 -5.01562,26.76563 -4.39844,11.21093 -11.11719,25.26562 -20.15625,42.17187 -9.05469,16.898438 -15.85156,30.5 -20.39063,40.8125 -4.54296,10.304688 -6.40234,18.015625 -5.57812,23.140625 0.57031,3.625 2.16016,6.3125 4.76562,8.0625 2.60157,1.742187 5.5625,2.34375 8.875,1.8125 13.25782,-2.113281 29.50391,-14.597656 48.73438,-37.453125 19.22656,-22.851562 40.17969,-56.17969 62.85937,-99.98437 l 3.90625,1.21875 c -46.59375,89.667964 -85.5625,136.999995 -116.90625,141.999995 -9.34375,1.492187 -16.69921,-0.03516 -22.0625,-4.578125 -5.36718,-4.550781 -8.67187,-10.75 -9.92187,-18.59375 -2.15625,-13.5625 6.20703,-36.691406 25.09375,-69.39063 9.14453,-16.28906 16.04687,-29.21093 20.70312,-38.76562 4.66407,-9.5625 6.61329,-16.75391 5.84375,-21.57812 -0.67968,-4.21875 -2.35546,-6.96094 -5.03125,-8.23438 -2.66796,-1.26953 -5.51562,-1.66406 -8.54687,-1.1875 -8.73047,1.39844 -18.71484,7.08594 -29.95313,17.0625 -11.24218,9.98047 -23.24609,24.33984 -36.01562,43.07813 -13.07422,18.78124 -24.29688,38.039058 -33.67188,57.76562 -9.37499,19.730469 -16.96874,39.492188 -22.78124,59.28125 L 76.875,-12.265625 c 6.28125,-16.769531 12.890625,-32.96875 19.828125,-48.59375 6.937505,-15.632813 14.070315,-31.457031 21.406255,-47.468755 7.33203,-16.01953 12.76562,-28.94531 16.29687,-38.78124 3.53125,-9.83204 5.00781,-16.55079 4.4375,-20.15625 -1.30469,-8.14454 -6.17188,-11.54688 -14.60937,-10.20313 -9.04297,1.44922 -19.55469,7.76563 -31.531255,18.95313 -11.96875,11.1875 -24.574219,27.57031 -37.8125,49.14062 -13.25,21.585938 -23.996094,41.460938 -32.234375,59.625 -8.230469,18.15625 -14.730469,34.574219 -19.5,49.25 l -29.390625,4.6875 c 4.042969,-9.601562 9.289063,-21.796875 15.734375,-36.578125 6.449219,-14.789063 13.957031,-32.144531 22.53125,-52.0625 8.875,-19.968755 16.234375,-36.828125 22.078125,-50.578125 5.84375,-13.75781 10.316406,-24.44531 13.421875,-32.0625 l 27.578125,-4.39062 -46.265625,93.624995 1.0625,0.75 c 10.101562,-17.988281 18.753906,-32.503905 25.953125,-43.546875 7.207031,-11.03906 14.578125,-21.03125 22.109375,-29.96875 16.707031,-19.34375 33.80078,-30.41016 51.28125,-33.20312 7.23828,-1.15625 13.49219,-0.22266 18.76562,2.79687 5.26954,3.02344 8.48438,8.15234 9.64063,15.39063 z m 0,0"
           id="path2-9" />
      </g>
    </g>
    <g
       style="fill:#fefaef;fill-opacity:1"
       id="g6">
      <g
         transform="translate(1014.4742,1235.4092)"
         id="g5">
        <path
           style="stroke:none"
           d="m 123.0625,-269.09375 c -12.375,27.02344 -25.210938,53.64844 -38.5,79.875 C 71.28125,-163 58.773438,-136.28125 47.046875,-109.0625 l 1.046875,0.76562 c 12.363281,-23.28906 24.382812,-40.96874 36.0625,-53.03124 11.675781,-12.0625 23.99219,-19.12891 36.95313,-21.20313 9.65624,-1.53906 18.20703,-0.28125 25.65624,3.78125 7.44532,4.0625 12.17969,12.42969 14.20313,25.09375 2.01953,12.66797 1.05078,25.49609 -2.90625,38.48437 -3.96094,12.99219 -11.26172,26.82813 -21.90625,41.51563 l 1.04687,0.75 c 7.65625,-2.445312 16.60938,-6.414062 26.85938,-11.90625 10.25,-5.5 19.71875,-12.035156 28.40625,-19.60938 10.03906,-8.71875 18.67187,-18.05468 25.89062,-28.01562 7.21875,-9.95703 13.61719,-19.70703 19.20313,-29.25 l 3.92187,1.21875 c -6.86718,11.29297 -13.65234,21.57422 -20.35937,30.84375 -6.71094,9.26172 -15.44922,18.91797 -26.21875,28.96875 -3.48047,3.34375 -7.08594,6.398438 -10.8125,9.15625 -3.73047,2.761719 -8.07813,5.542969 -13.04688,8.34375 -4.96093,2.804688 -10.625,5.5625 -17,8.28125 -6.36718,2.71875 -13.92968,5.699219 -22.6875,8.9375 -3.48046,3.335938 -7.87499,8.210938 -13.18749,14.625 -5.3125,6.417969 -11.32813,12.792969 -18.04688,19.125 -6.71875,6.324219 -13.914062,12.105469 -21.578125,17.34375 -7.667969,5.230469 -15.570313,8.496094 -23.703125,9.796875 -4.523438,0.71875 -9,0.277344 -13.4375,-1.328125 -4.429688,-1.601562 -7.054688,-4.96875 -7.875,-10.09375 -1.492188,-9.351562 4.46875,-18.035156 17.875,-26.046875 13.414062,-8.007813 33.644531,-15.410156 60.6875,-22.203125 3.89453,-6.5 7.32813,-13.535156 10.29688,-21.109375 2.97656,-7.582031 5.46875,-15.242185 7.46874,-22.984375 2.00782,-7.73828 3.36329,-15.21875 4.0625,-22.4375 0.70704,-7.22656 0.57813,-13.85156 -0.39062,-19.875 -1.63672,-10.25781 -4.22656,-16.80078 -7.76562,-19.625 -3.53125,-2.83203 -7.41407,-3.91406 -11.64063,-3.25 -8.13672,1.30469 -16.730469,6.54297 -25.78125,15.71875 -9.042969,9.16797 -18.921875,22.79297 -29.640625,40.875 C 53.316406,-108.5 48,-98.6875 42.75,-87.96875 37.507812,-77.25 31.660156,-65.03125 25.203125,-51.3125 17.804688,-35.613281 9.992188,-18.679688 1.765625,-0.515625 -6.460938,17.640625 -14.65625,36.023438 -22.8125,54.640625 -30.976562,73.253906 -38.859375,91.664062 -46.453125,109.875 c -7.601563,18.21875 -14.320313,35.21094 -20.15625,50.98437 l -28.03125,4.46875 c 4.242187,-10.26171 10.234375,-24.51171 17.984375,-42.74999 7.75,-18.23047 16.5625,-38.570318 26.4375,-61.01563 C -40.351562,39.125 -29.847656,15.351562 -18.703125,-9.75 -7.554688,-34.863281 3.460938,-59.734375 14.359375,-84.359375 23.898438,-105.97266 33.03125,-126.74219 41.75,-146.67187 c 8.71875,-19.9375 16.671875,-37.89844 23.859375,-53.89063 7.1875,-15.98828 13.128906,-29.60937 17.828125,-40.85937 4.695312,-11.25782 7.957031,-18.89454 9.78125,-22.90625 z m -63.203125,257.6875 c 4.21875,-0.675781 8.679687,-2.703125 13.390625,-6.078125 4.71875,-3.375 9.25,-7.414063 13.59375,-12.125 4.351562,-4.71875 8.453125,-9.546875 12.296875,-14.484375 3.851565,-4.945312 6.992185,-9.472656 9.421875,-13.578125 l -1.03125,-0.734375 C 106.41406,-57.625 102.07031,-56.238281 94.5,-54.25 86.9375,-52.269531 78.953125,-49.535156 70.546875,-46.046875 63.304688,-43.023438 57,-39.460938 51.625,-35.359375 c -5.375,4.105469 -7.578125,9.167969 -6.609375,15.1875 0.570313,3.625 2.359375,6.125 5.359375,7.5 3,1.375 6.160156,1.796875 9.484375,1.265625 z m 0,0"
           id="path4-4" />
      </g>
    </g>
    <g
       style="fill:#fefaef;fill-opacity:1"
       id="g8">
      <g
         transform="translate(1215.2395,1203.3816)"
         id="g7">
        <path
           style="stroke:none"
           d="m 80.09375,-172.28125 c -4.84375,10.36719 -10.945312,22.54688 -18.296875,36.54688 -7.355469,13.99218 -15.605469,30.05859 -24.75,48.20312 -9.15625,18.167969 -15.933594,32.859375 -20.328125,44.078125 -4.398438,11.210937 -6.1875,19.375 -5.375,24.5 1.394531,8.742187 6.3125,12.4375 14.75,11.09375 7.238281,-1.15625 15.523438,-5.878906 24.859375,-14.171875 9.34375,-8.300781 19.25,-19.851562 29.71875,-34.65625 10.476563,-14.8125 21.359375,-32.851562 32.640625,-54.125 11.28906,-21.26953 22.67187,-45.34375 34.14062,-72.21875 L 175.5,-187.5 c -14.1875,27.30469 -26.77734,54.96875 -37.76563,83 -10.99218,28.03125 -23.03124,56.230469 -36.12499,84.59375 14.05078,-5.03125 27.42578,-11.800781 40.12499,-20.3125 12.69532,-8.519531 24.67188,-18.703125 35.92188,-30.546875 11.25,-11.84375 21.67578,-24.941406 31.28125,-39.296875 9.61328,-14.36328 18.34766,-29.89844 26.20312,-46.60937 l 3.35938,0.85937 c -16.65625,36.96094 -37.12109,67.578125 -61.39063,91.859375 -24.26171,24.273437 -50.19531,40.929687 -77.79687,49.96875 -9.96875,20.75 -18.996094,38.257813 -27.078125,52.53125 C 64.148438,52.828125 56.582031,65.007812 49.53125,75.09375 42.488281,85.175781 36.003906,93.472656 30.078125,99.984375 24.160156,106.49219 18.5,112.1875 13.09375,117.0625 c -21.644531,19.22656 -46.789062,31.125 -75.4375,35.6875 -9.644531,1.53906 -19.253906,1.83594 -28.828125,0.89062 -9.570315,-0.9375 -18.234375,-3.41796 -25.984375,-7.4375 -15.45703,-7.74218 -24.31641,-18.69531 -26.57812,-32.85937 -2.5,-15.667969 0.875,-27.949219 10.125,-36.84375 9.24999,-8.898438 21.26171,-14.527344 36.031245,-16.890625 L -97.375,60.96875 c -10.46875,4.144531 -17.67578,10.316406 -21.625,18.515625 -3.94531,8.207031 -5.03516,17.894531 -3.26563,29.062505 1.15625,7.22656 3.55469,13.48437 7.1875,18.76562 3.63672,5.28906 8.1875,9.58594 13.65625,12.89062 5.460942,3.3125 11.460942,5.60157 18.000005,6.875 6.542969,1.26954 13.429687,1.33204 20.65625,0.1875 13.867187,-2.21875 27.132813,-7.74218 39.796875,-16.5625 12.65625,-8.81249 24.90625,-20.65624 36.75,-35.531245 C 25.882812,79.953125 37.175781,62.539062 47.65625,42.9375 58.132812,23.34375 67.421875,4.082031 75.515625,-14.84375 L 103.54688,-80.5 102.5,-81.28125 C 87.414062,-55.675781 73.0625,-36.144531 59.4375,-22.6875 45.820312,-9.238281 31.773438,-1.363281 17.296875,0.9375 c -9.636719,1.539062 -16.875,0.691406 -21.71875,-2.546875 -4.851563,-3.238281 -7.8125,-8.175781 -8.875,-14.8125 -0.957031,-6.03125 -0.160156,-13.1875 2.390625,-21.46875 2.542969,-8.289063 6.464844,-18.113281 11.765625,-29.46875 5.289063,-11.363281 12.046875,-25.195313 20.265625,-41.500005 8.21875,-16.30078 17.773438,-35.83203 28.671875,-58.59374 z m 0,0"
           id="path6-8" />
      </g>
    </g>
    <g
       style="fill:#fefaef;fill-opacity:1"
       id="g10">
      <g
         transform="translate(1416.0048,1171.354)"
         id="g9">
        <path
           style="stroke:none"
           d="m 137.53125,-184.23437 c -0.51172,0.69921 -1.70313,2.4375 -3.57813,5.21875 -1.875,2.77343 -3.87109,6.25781 -5.98437,10.45312 -2.10547,4.19922 -3.82031,8.95313 -5.14062,14.26563 -1.3125,5.30468 -1.51172,10.82031 -0.59375,16.54687 1.10156,6.9375 3.70312,12.08984 7.79687,15.45312 4.09375,3.36719 8.69531,4.64063 13.8125,3.82813 6.33203,-1.00781 12.72656,-4.03516 19.1875,-9.07813 6.46875,-5.05078 14.20312,-13.24218 23.20312,-24.57812 l 3.01563,1.375 c -10.4375,14.04297 -19.41797,23.67187 -26.9375,28.89062 -7.52344,5.21094 -14.74609,8.36719 -21.67188,9.46875 -9.64843,1.54297 -17.87499,-0.15625 -24.68749,-5.09375 -6.8125,-4.94531 -11.0586,-12.69531 -12.73438,-23.24999 -1.15625,-7.22657 -0.53906,-13.97266 1.85938,-20.23438 l -1.0625,-0.75 c -6.968755,6.66797 -13.92188,13.95313 -20.85938,21.85938 -6.929688,7.90625 -14.0625,16.92968 -21.40625,27.06249 -5.367188,7.04297 -10.25,13.699224 -14.65625,19.968755 -4.40625,6.273437 -8.464844,12.335937 -12.171875,18.1875 C 20.671875,-53.523438 10.082031,-28.8125 3.15625,-0.5 l -29.390625,4.6875 c 7.855469,-18.5625 14.9375,-35.222656 21.25,-49.984375 6.300781,-14.757813 12.332031,-28.785156 18.09375,-42.078125 5.757813,-13.28906 11.414063,-26.25 16.96875,-38.875 5.5625,-12.63281 11.53125,-26.10156 17.90625,-40.40625 l 27.59375,-4.40625 -44.09375,92.8125 1.046875,0.75 c 4.375,-7.488281 9.648438,-15.585938 15.828125,-24.29688 6.1875,-8.71875 12.707031,-17.2539 19.5625,-25.60937 6.863281,-8.36328 13.644531,-16.25 20.34375,-23.65625 6.707031,-7.40625 12.765625,-13.55078 18.171875,-18.4375 1.16406,-4.19531 2.76953,-7.14844 4.8125,-8.85937 2.05078,-1.71875 5.03516,-2.89063 8.95313,-3.51563 2.71875,-0.4375 5.05468,-0.8125 7.01562,-1.125 1.95703,-0.3125 5.39453,-0.55469 10.3125,-0.73437 z m 0,0"
           id="path8-8" />
      </g>
    </g>
    <g
       style="fill:#fefaef;fill-opacity:1"
       id="g12">
      <g
         transform="translate(1566.5787,1147.3334)"
         id="g11">
        <path
           style="stroke:none"
           d="m 109.75,-247.95312 c 0.66406,4.23046 -0.125,7.99218 -2.375,11.28125 -2.25,3.29296 -5.49219,5.27343 -9.71875,5.9375 -4.21875,0.67968 -7.914062,-0.19532 -11.078125,-2.625 -3.167969,-2.42579 -5.085937,-5.75391 -5.75,-9.98438 -0.679687,-4.21875 0.179687,-7.98828 2.578125,-11.3125 2.40625,-3.32031 5.566406,-5.29687 9.484375,-5.92187 3.914063,-0.625 7.535155,0.27343 10.859375,2.6875 3.32031,2.40625 5.32031,5.71875 6,9.9375 z m -29.65625,75.67187 c -13.960938,28.80469 -25.40625,52.49609 -34.34375,71.07812 -8.9375,18.585942 -15.96875,33.621099 -21.09375,45.10938 -5.117188,11.480469 -8.523438,20.136719 -10.21875,25.96875 -1.699219,5.835938 -2.257812,10.5625 -1.671875,14.1875 1.25,7.835938 5.035156,11.246094 11.359375,10.234375 8.445312,-1.351563 18.046875,-7.0625 28.796875,-17.125 10.757813,-10.0625 21.507813,-22.128906 32.25,-36.203125 10.738281,-14.070312 20.601565,-28.78125 29.593755,-44.125 8.98828,-15.34375 15.92968,-28.97266 20.82812,-40.89062 l 3.98437,1.6875 C 132.99219,-127.39844 124.96875,-111.82031 115.5,-95.625 106.03125,-79.425781 95.898438,-64.441406 85.109375,-50.671875 74.328125,-36.898438 63.34375,-25.332031 52.15625,-15.96875 40.976562,-6.613281 30.71875,-1.191406 21.375,0.296875 13.238281,1.585938 6.847656,0.285156 2.203125,-3.609375 c -4.632813,-3.894531 -7.382813,-8.550781 -8.25,-13.96875 -1.050781,-6.632813 -0.46875,-14.144531 1.75,-22.53125 2.210937,-8.394531 5.769531,-18.46875 10.6875,-30.21875 4.925781,-11.757813 11.15625,-25.503906 18.6875,-41.234375 7.539063,-15.73828 16.226563,-34.44141 26.0625,-56.10937 z m 0,0"
           id="path10-2" />
      </g>
    </g>
    <g
       style="fill:#fefaef;fill-opacity:1"
       id="g14">
      <g
         transform="translate(1666.9614,1131.3196)"
         id="g13">
        <path
           style="stroke:none"
           d="m 139.5,-154.40625 10.67187,-29.0625 29.39063,-4.6875 c -6.8125,13.44922 -14.0625,28.05469 -21.75,43.8125 -7.6875,15.76172 -14.77344,30.96094 -21.25,45.59375 -6.48047,14.636719 -11.70312,27.914062 -15.67187,39.828125 -3.96875,11.90625 -5.4961,20.726563 -4.57813,26.453125 1.25,7.835938 5.94141,11.105469 14.07812,9.8125 6.03125,-0.957031 13.32032,-5.128906 21.875,-12.515625 8.5625,-7.394531 17.64844,-17.269531 27.26563,-29.625 9.61328,-12.363281 19.44531,-26.765625 29.5,-43.203125 10.05078,-16.4375 19.41016,-34.3125 28.07812,-53.625 l 2.875,0.46875 c -9.63671,21.01172 -19.40625,40.19531 -29.3125,57.54687 -9.90625,17.343755 -19.82421,32.218755 -29.75,44.625005 -9.91796,12.398437 -19.46875,22.261719 -28.65625,29.59375 -9.1875,7.335937 -17.85156,11.652344 -25.98437,12.953125 -8.74219,1.386719 -15.49609,0.226562 -20.26562,-3.484375 -4.76172,-3.71875 -7.621099,-8.597656 -8.57813,-14.640625 -0.679688,-4.21875 -0.679688,-8.539062 0,-12.96875 0.675781,-4.4375 1.460938,-8.734375 2.359375,-12.890625 l -1,-0.3125 c -12,17.679687 -23.839844,31.621094 -35.515625,41.828125 C 51.613281,-8.707031 40.804688,-2.8125 30.859375,-1.21875 19.710938,0.5625 11.328125,-1.648438 5.703125,-7.859375 c -5.625,-6.21875 -9.132813,-13.691406 -10.53125,-22.421875 -1.78125,-11.164062 -0.359375,-24.535156 4.265625,-40.109375 4.625,-15.570313 12.789062,-32.175785 24.5,-49.812505 11.726562,-17.62499 23.84375,-31.29687 36.34375,-41.01562 12.507812,-9.72656 24.347656,-15.48437 35.515625,-17.26562 9.632815,-1.53907 18.156255,-0.42969 25.562505,3.32812 7.40624,3.76172 13.14843,10.72656 17.23437,20.89063 z m -97.25,140.25 c 6.03125,-0.957031 14.144531,-5.804688 24.34375,-14.546875 10.195312,-8.738281 20.597656,-21.523437 31.203125,-38.359375 10.601565,-16.84375 17.992185,-33.01563 22.171875,-48.51563 4.17578,-15.49999 5.375,-28.82812 3.59375,-39.98437 -1.05469,-6.63281 -3.84375,-11.51953 -8.375,-14.65625 -4.52344,-3.14453 -9.79297,-4.23828 -15.8125,-3.28125 -5.4375,0.86719 -11.414062,3.67188 -17.921875,8.42188 -6.5,4.75 -12.8125,10.70312 -18.9375,17.85937 -6.117187,7.15625 -11.902344,15.42188 -17.359375,24.79687 -5.460938,9.375 -10.171875,19.09375 -14.140625,29.156255 -3.960937,10.054687 -6.742187,20.230469 -8.34375,30.53125 -1.605469,10.304687 -1.664063,20.121094 -0.171875,29.453125 2.3125,14.480469 8.894531,20.855469 19.75,19.125 z m 0,0"
           id="path12-4" />
      </g>
    </g>
  </g>
</svg>
